<svg xmlns="http://www.w3.org/2000/svg" width="78" height="58"><path data-name="Path 23" d="M0 31.839L55.57 19.1l-3.25 6.368 11.7-2.159v-5.285s.76-4.209-4.22-4.209H33.74c-2.08 0-4.82.971-4.82 4.209v3.13H13.87v-5.288S12.06 0 27.73 0h35.21C71.21 0 78 1.835 78 13.815v28.437C78 49.515 77.16 58 64.65 58H33.06c-7.78 0-19.19-.066-19.19-12.583v-8.29h14.95s-1.15 8.124 4.81 8.448h25.09a6.871 6.871 0 0 0 5.3-6.289 14.877 14.877 0 0 0 0-3.13l-28.81 4.209 4.22-8.526H0z" fill="#ffba00" fill-rule="evenodd"/></svg>